<svg width="100" height="100" viewBox="0 0 100 100" xmlns="http://www.w3.org/2000/svg">
  <!-- Gradient Background -->
  <defs>
    <linearGradient id="grad9" x1="0%" y1="0%" x2="100%" y2="100%">
      <stop offset="0%" style="stop-color:#14B8A6;stop-opacity:1" />
      <stop offset="100%" style="stop-color:#0D9488;stop-opacity:1" />
    </linearGradient>
  </defs>
  <circle cx="50" cy="50" r="50" fill="url(#grad9)"/>
  <!-- Face -->
  <circle cx="50" cy="38" r="18" fill="#F8FAFC"/>
  <!-- Cool hair style -->
  <path d="M 32 28 Q 30 20 38 18 Q 44 16 50 16 Q 56 16 62 18 Q 70 20 68 28 L 65 22 L 60 26 L 55 20 L 50 26 L 45 20 L 40 26 L 35 22 Z" fill="#14B8A6"/>
  <!-- Sunglasses -->
  <rect x="38" y="34" width="10" height="6" rx="3" fill="#0F172A" opacity="0.8"/>
  <rect x="52" y="34" width="10" height="6" rx="3" fill="#0F172A" opacity="0.8"/>
  <line x1="48" y1="37" x2="52" y2="37" stroke="#0F172A" stroke-width="2"/>
  <!-- Cool smile -->
  <path d="M 43 44 Q 50 46 57 44" stroke="#14B8A6" stroke-width="2.5" fill="none" stroke-linecap="round"/>
  <!-- Body with jacket -->
  <path d="M 22 75 Q 22 58 50 58 Q 78 58 78 75 Z" fill="#F8FAFC"/>
  <!-- Jacket collar -->
  <path d="M 35 58 L 45 66 L 50 63 L 55 66 L 65 58" stroke="#14B8A6" stroke-width="3" fill="none" stroke-linejoin="round"/>
</svg>
